<svg width="50" height="50" viewBox="0 0 50 50" fill="none" xmlns="http://www.w3.org/2000/svg">
<path d="M50 25C50 11.1935 38.8065 0 25 0C11.1935 0 0 11.1935 0 25C0 38.8065 11.1935 50 25 50C38.8065 50 50 38.8065 50 25ZM24.4411 35.9808C24.2618 35.8029 24.1192 35.5914 24.0216 35.3585C23.924 35.1255 23.8733 34.8756 23.8723 34.623C23.8713 34.3705 23.92 34.1201 24.0158 33.8864C24.1115 33.6527 24.2524 33.4401 24.4303 33.2608L30.7187 26.9231H14.6635C14.1534 26.9231 13.6643 26.7205 13.3036 26.3598C12.943 25.9992 12.7404 25.51 12.7404 25C12.7404 24.49 12.943 24.0008 13.3036 23.6402C13.6643 23.2795 14.1534 23.0769 14.6635 23.0769H30.7187L24.4303 16.7392C24.2524 16.5597 24.1116 16.347 24.0159 16.1131C23.9203 15.8792 23.8716 15.6288 23.8727 15.3761C23.8738 15.1234 23.9247 14.8734 24.0224 14.6404C24.1202 14.4074 24.2628 14.1959 24.4423 14.018C24.6218 13.8401 24.8345 13.6993 25.0684 13.6037C25.3023 13.508 25.5527 13.4594 25.8054 13.4605C26.3157 13.4627 26.8042 13.6676 27.1635 14.03L36.7055 23.6454C37.063 24.0056 37.2635 24.4925 37.2635 25C37.2635 25.5075 37.063 25.9944 36.7055 26.3546L27.1635 35.9699C26.9855 36.1496 26.7739 36.2925 26.5408 36.3903C26.3076 36.4881 26.0574 36.539 25.8045 36.54C25.5517 36.541 25.3011 36.4921 25.0671 36.3962C24.8332 36.3002 24.6204 36.159 24.4411 35.9808Z" fill="#EEF4ED"/>
</svg>
