<svg width="36" height="28" viewBox="0 0 36 28" fill="none" xmlns="http://www.w3.org/2000/svg">
<path d="M31.5 0H4.5C3.30692 0.00126336 2.16307 0.470986 1.31943 1.3061C0.475792 2.14122 0.00127625 3.27351 0 4.45455V23.5455C0.00127625 24.7265 0.475792 25.8588 1.31943 26.6939C2.16307 27.529 3.30692 27.9987 4.5 28H31.5C32.6931 27.9987 33.8369 27.529 34.6806 26.6939C35.5242 25.8588 35.9987 24.7265 36 23.5455V4.45455C35.9987 3.27351 35.5242 2.14122 34.6806 1.3061C33.8369 0.470986 32.6931 0.00126336 31.5 0ZM30.3605 7.3683L18.7891 16.2774C18.5635 16.451 18.2858 16.5453 18 16.5453C17.7142 16.5453 17.4365 16.451 17.2109 16.2774L5.63946 7.3683C5.50351 7.26666 5.38932 7.1393 5.30352 6.9936C5.21772 6.84791 5.16203 6.68678 5.13968 6.51959C5.11733 6.35241 5.12878 6.18249 5.17334 6.01972C5.2179 5.85695 5.2947 5.70457 5.39928 5.57143C5.50385 5.43829 5.63411 5.32706 5.78248 5.24418C5.93086 5.16131 6.09439 5.10846 6.26359 5.08869C6.43278 5.06892 6.60425 5.08264 6.76804 5.12904C6.93183 5.17544 7.08467 5.2536 7.21768 5.35898L18 13.6603L28.7823 5.35898C29.0519 5.15743 29.3909 5.06903 29.7258 5.1129C30.0607 5.15677 30.3648 5.32939 30.5722 5.59342C30.7795 5.85745 30.8736 6.19167 30.834 6.52381C30.7944 6.85595 30.6243 7.15931 30.3605 7.3683Z" fill="white"/>
</svg>
