<svg width="32" height="33" viewBox="0 0 32 33" fill="none" xmlns="http://www.w3.org/2000/svg">
<path d="M25.6411 32.9997C24.2465 32.9997 22.2875 32.4797 19.3541 30.7899C15.7869 28.7273 13.0278 26.8232 9.47992 23.1747C6.05922 19.65 4.3946 17.368 2.06484 12.9969C-0.56713 8.06158 -0.118467 5.47458 0.383064 4.36892C0.980329 3.04743 1.86194 2.25704 3.00146 1.47255C3.6487 1.03532 4.33364 0.660516 5.04759 0.352892C5.11903 0.321218 5.18547 0.291017 5.24477 0.263762C5.59842 0.0994963 6.13424 -0.148743 6.81295 0.116439C7.2659 0.291753 7.67027 0.650485 8.30326 1.29502C9.60138 2.61504 11.3753 5.55487 12.0297 6.99864C12.4691 7.97171 12.7599 8.61404 12.7606 9.33445C12.7606 10.1779 12.3491 10.8283 11.8497 11.5303C11.7561 11.6622 11.6632 11.7881 11.5732 11.9104C11.0295 12.647 10.9102 12.8599 10.9888 13.24C11.1481 14.0039 12.3362 16.2778 14.2888 18.2865C16.2413 20.2953 18.3832 21.4429 19.1269 21.6065C19.5113 21.6912 19.722 21.563 20.4593 20.9826C20.565 20.8993 20.6736 20.8131 20.7872 20.727C21.5488 20.1428 22.1504 19.7296 22.9491 19.7296H22.9534C23.6485 19.7296 24.2437 20.0404 25.2296 20.5531C26.5155 21.222 29.4526 23.0274 30.7407 24.3673C31.3673 25.0185 31.7166 25.4339 31.8874 25.9002C32.1446 26.6022 31.9024 27.1525 31.7445 27.5208C31.718 27.5819 31.6887 27.6489 31.658 27.7233C31.3573 28.4581 30.9916 29.1629 30.5657 29.8286C29.8062 30.9998 29.0368 31.9066 27.7522 32.5231C27.0926 32.8448 26.3707 33.0078 25.6411 32.9997Z" fill="white"/>
</svg>
