<svg width="24" height="33" viewBox="0 0 24 33" fill="none" xmlns="http://www.w3.org/2000/svg">
<path d="M12 0C18.6165 0 24 5.057 24 11.2705C24 14.2296 22.6268 18.1647 19.9185 22.9668C17.7435 26.8223 15.2273 30.3088 13.9185 32.0436C13.6974 32.34 13.4082 32.5811 13.0745 32.7472C12.7408 32.9134 12.3719 33 11.9977 33C11.6236 33 11.2547 32.9134 10.921 32.7472C10.5873 32.5811 10.2981 32.34 10.077 32.0436C8.7705 30.3088 6.252 26.8223 4.077 22.9668C1.37325 18.1661 0 14.231 0 11.2705C0 5.057 5.3835 0 12 0ZM12 16.5006C12.9493 16.5006 13.8774 16.2241 14.6667 15.7061C15.4561 15.1881 16.0713 14.4518 16.4346 13.5903C16.7979 12.7288 16.893 11.7809 16.7078 10.8664C16.5226 9.95189 16.0654 9.11186 15.3941 8.45253C14.7228 7.7932 13.8675 7.34419 12.9364 7.16228C12.0053 6.98037 11.0402 7.07373 10.1631 7.43056C9.28603 7.78739 8.53638 8.39165 8.00895 9.16694C7.48151 9.94223 7.2 10.8537 7.2 11.7862C7.20139 13.0361 7.70755 14.2344 8.60742 15.1183C9.50729 16.0021 10.7274 16.4993 12 16.5006Z" fill="white"/>
</svg>
